# xmcd
#
# Track frame offsets: 
#        150
#        12922
#        21851
#        33667
#        49129
#        60446
#        70885
#        85779
#        96322
#        109198
#        125193
#        140871
#        152531
#        167770
#        180683
#
# Disc length: 2594 seconds
#
# Revision: 0
# Processed by: cddbd v1.5.1PL2 Copyright (c) Steve Scherf et al.
# Submitted via: ExactAudioCopy v0.95b4
#
DISCID=d00a200f
DTITLE=B.B. King - The Legendary BB King - Disc 2
DYEAR=1900
DGENRE=Blues
TTITLE0=Please Love Me
TTITLE1=Woke Up This Morning (My Baby's Gone)
TTITLE2=Paying The Cost To Be The Boss (Live)
TTITLE3=How Blue Can You Get (Live)
TTITLE4=She's Dynamite
TTITLE5=Don't You Want A Man Like Me
TTITLE6=B.B. Boogie
TTITLE7=That Ain't The Way To Do It
TTITLE8=The Other Night Blues
TTITLE9=Long Nights
TTITLE10=The Letter (Live)
TTITLE11=Hard Workin' Woman
TTITLE12=Precious Lord
TTITLE13=I'm Working On The Building
TTITLE14=Save A Seat For Me
EXTD=
EXTT0=
EXTT1=
EXTT2=
EXTT3=
EXTT4=
EXTT5=
EXTT6=
EXTT7=
EXTT8=
EXTT9=
EXTT10=
EXTT11=
EXTT12=
EXTT13=
EXTT14=
PLAYORDER=
